<?xml version="1.0" encoding="utf-8"?>
<!-- Generator: Adobe Illustrator 16.0.0, SVG Export Plug-In . SVG Version: 6.00 Build 0)  -->
<!DOCTYPE svg PUBLIC "-//W3C//DTD SVG 1.1//EN" "http://www.w3.org/Graphics/SVG/1.1/DTD/svg11.dtd">
<svg version="1.1" id="Layer_1" xmlns="http://www.w3.org/2000/svg" xmlns:xlink="http://www.w3.org/1999/xlink" x="0px" y="0px"
	 width="529.715px" height="103.664px" viewBox="0 0 529.715 103.664" enable-background="new 0 0 529.715 103.664"
	 xml:space="preserve">
<g>
	<g>
		<polygon fill-rule="evenodd" clip-rule="evenodd" fill="#FFFFFF" points="95.849,60.182 89.225,60.182 89.225,0 96.936,0 
			115.601,42.995 132.73,0 140.359,0 140.359,60.182 133.412,60.182 133.412,24.314 133.573,13.572 133.412,13.572 129.508,24.354 
			118.898,51.136 111.023,51.136 99.448,24.216 95.849,14.461 95.688,14.461 95.849,24.232 		"/>
		<path fill-rule="evenodd" clip-rule="evenodd" fill="#FFFFFF" d="M206.172,60.182h-7.191V16.804h7.191v7.601
			c1.209-2.189,2.531-3.891,3.964-5.104c1.436-1.212,2.962-2.133,4.583-2.763c1.615-0.632,3.268-0.945,4.952-0.945
			c1.525,0,2.841,0.22,3.948,0.663v7.445c-1.736-0.827-3.579-1.245-5.528-1.245c-2.763,0-5.44,1.195-8.034,3.58
			c-2.59,2.385-3.885,6.613-3.885,12.678V60.182z"/>
		<path fill-rule="evenodd" clip-rule="evenodd" fill="#FFFFFF" d="M257.241,49.114h7.271V49.5c0,1.933-0.735,3.875-2.211,5.834
			c-1.475,1.957-3.405,3.453-5.794,4.498c-2.387,1.039-5.265,1.561-8.63,1.561c-6.446,0-11.412-2.022-14.896-6.076
			c-3.482-4.055-5.225-9.668-5.225-16.842c0-7.146,1.742-12.748,5.225-16.803c3.483-4.052,8.449-6.079,14.896-6.079
			c3.365,0,6.243,0.52,8.63,1.562c2.389,1.042,4.319,2.472,5.794,4.286c1.476,1.818,2.211,3.829,2.211,6.045v0.386h-7.271v-0.386
			c0.078-1.575-0.624-2.952-2.107-4.137c-1.482-1.188-3.771-1.779-6.869-1.779c-3.676,0-6.763,1.336-9.255,4.012
			c-2.495,2.675-3.739,6.975-3.739,12.893c0,5.945,1.244,10.257,3.739,12.933c2.492,2.673,5.579,4.009,9.255,4.009
			c3.098,0,5.366-0.589,6.813-1.777c1.443-1.187,2.164-2.563,2.164-4.139V49.114z"/>
		<path fill-rule="evenodd" clip-rule="evenodd" fill="#FFFFFF" d="M180.642,49.036h7.188v0.389c0,1.918-0.75,3.875-2.255,5.869
			c-1.503,1.997-3.493,3.51-5.964,4.545c-2.473,1.036-5.313,1.554-8.524,1.554c-6.497,0-11.512-2.133-15.042-6.409
			c-3.529-4.272-5.292-9.671-5.292-16.198c0-6.682,1.864-12.219,5.596-16.607c3.731-4.393,8.536-6.584,14.418-6.584
			c3.236,0,6.165,0.712,8.788,2.139c2.622,1.424,4.699,3.646,6.227,6.665c1.527,3.018,2.291,7.226,2.291,12.614v2.411h-30.21
			c0,4.643,1.22,8.473,3.662,11.481c2.442,3.009,5.828,4.513,10.158,4.513c3.111,0,5.383-0.618,6.814-1.858
			c1.43-1.241,2.146-2.617,2.146-4.133V49.036z M158.316,34.01h22.89v-0.86c0-2.034-0.472-4.011-1.422-5.925
			c-0.951-1.918-2.26-3.34-3.929-4.266c-1.672-0.926-3.619-1.389-5.846-1.389c-2.633,0-5.064,1.089-7.289,3.264
			C160.493,27.014,159.025,30.073,158.316,34.01z"/>
		<path fill-rule="evenodd" clip-rule="evenodd" fill="#FFFFFF" d="M286.559,58.315l-18.564-41.512h8.035l14.421,32.258
			l13.583-32.258h7.262l-18.264,43.389c-2.46,5.841-4.518,9.714-6.174,11.618c-1.657,1.898-3.413,3.236-5.263,4.011
			c-1.849,0.777-4.312,1.165-7.377,1.165h-5.415v-5.98h4.064c1.99,0,3.733-0.261,5.23-0.789c1.498-0.532,2.742-1.375,3.74-2.538
			c0.991-1.16,2.328-3.711,4.006-7.657L286.559,58.315z"/>
		<path fill-rule="evenodd" clip-rule="evenodd" fill="#FFFFFF" d="M370.336,48.792h7.188v0.155c0,1.86,0.709,3.402,2.13,4.629
			c1.417,1.228,3.816,1.84,7.192,1.84c2.968,0,5.37-0.726,7.216-2.182c1.848-1.452,2.77-3.164,2.77-5.14
			c0-2.674-1.805-4.57-5.409-5.688l-3.671-1.13l-2.439-0.778l-4.984-1.554c-5.692-2.097-8.536-5.583-8.536-10.453
			c0-3.418,1.38-6.424,4.144-9.014c2.764-2.591,6.867-3.885,12.317-3.885c5.376,0,9.2,1.106,11.468,3.314
			c2.272,2.21,3.413,4.663,3.413,7.355v0.153h-7.271v-0.157c0-1.459-0.729-2.605-2.191-3.438c-1.459-0.833-3.4-1.25-5.828-1.25
			c-2.892,0-5.102,0.604-6.642,1.811c-1.534,1.208-2.302,2.693-2.302,4.46c0,1.35,0.493,2.448,1.489,3.292
			c0.988,0.841,2.658,1.603,5.003,2.276l3.479,0.974l2.514,0.74c3.504,1.011,5.689,1.726,6.552,2.137
			c0.863,0.416,1.73,0.944,2.609,1.594c1.213,0.932,2.105,2.058,2.689,3.381c0.577,1.323,0.868,2.862,0.868,4.625
			c0,4.095-1.463,7.541-4.391,10.339c-2.927,2.796-7.202,4.194-12.823,4.194c-3.56,0-6.511-0.526-8.856-1.581
			c-2.346-1.057-4.217-2.519-5.607-4.39c-1.395-1.867-2.089-4.024-2.089-6.475V48.792z"/>
		<path fill-rule="evenodd" clip-rule="evenodd" fill="#FFFFFF" d="M441.113,49.114h7.269V49.5c0,1.933-0.739,3.875-2.21,5.834
			c-1.478,1.957-3.407,3.453-5.795,4.498c-2.39,1.039-5.263,1.561-8.632,1.561c-6.445,0-11.408-2.022-14.894-6.076
			c-3.484-4.055-5.226-9.668-5.226-16.842c0-7.146,1.741-12.748,5.226-16.803c3.485-4.052,8.448-6.079,14.894-6.079
			c3.369,0,6.242,0.52,8.632,1.562c2.388,1.042,4.317,2.472,5.795,4.286c1.471,1.818,2.21,3.829,2.21,6.045v0.386h-7.269v-0.386
			c0.075-1.575-0.628-2.952-2.109-4.137c-1.485-1.188-3.774-1.779-6.87-1.779c-3.677,0-6.76,1.336-9.254,4.012
			c-2.496,2.675-3.745,6.975-3.745,12.893c0,5.945,1.249,10.257,3.745,12.933c2.494,2.673,5.577,4.009,9.254,4.009
			c3.096,0,5.37-0.589,6.812-1.777c1.444-1.187,2.168-2.563,2.168-4.139V49.114z"/>
		<path fill-rule="evenodd" clip-rule="evenodd" fill="#FFFFFF" d="M318.223,60.182h-7.251L335.609,0h7.854l22.845,60.182h-8.37
			l-6.231-16.559h-26.625L318.223,60.182z M327.385,37.645h21.997L338.76,9.664L327.385,37.645z"/>
		<path fill-rule="evenodd" clip-rule="evenodd" fill="#FFFFFF" d="M529.715,54.095v6.028c-3.508,0.85-6.19,1.27-8.045,1.27
			c-2.682,0-5.103-0.543-7.256-1.631c-2.152-1.09-3.789-2.668-4.91-4.742c-1.121-2.076-1.682-5.38-1.682-9.919V22.78h-7.512v-5.977
			h7.512V6.544h7.188v10.26h12.603v5.977H515.01v20.292c0,3.842,0.301,6.509,0.892,8.003c0.593,1.493,1.525,2.591,2.803,3.291
			c1.278,0.703,2.806,1.05,4.589,1.05C524.711,55.416,526.85,54.976,529.715,54.095z"/>
		<path fill-rule="evenodd" clip-rule="evenodd" fill="#FFFFFF" d="M475.423,61.393c-5.669,0-10.505-1.92-14.499-5.765
			c-3.999-3.85-5.998-9.565-5.998-17.153c0-7.561,1.999-13.265,5.998-17.113c3.994-3.846,8.83-5.768,14.499-5.768
			c5.64,0,10.462,1.922,14.46,5.768c3.998,3.849,5.996,9.553,5.996,17.113c0,7.588-1.998,13.304-5.996,17.153
			C485.885,59.473,481.063,61.393,475.423,61.393z M475.423,55.416c3.887,0,7.019-1.55,9.392-4.654
			c2.367-3.102,3.554-7.201,3.554-12.287c0-5.065-1.187-9.146-3.554-12.25c-2.373-3.102-5.505-4.654-9.392-4.654
			c-3.914,0-7.058,1.553-9.427,4.654c-2.371,3.104-3.558,7.185-3.558,12.25c0,5.086,1.187,9.186,3.558,12.287
			C468.366,53.866,471.509,55.416,475.423,55.416z"/>
	</g>
	<path fill-rule="evenodd" clip-rule="evenodd" fill="#FDB913" d="M34.169,76.874l0.046,0.109c-0.303,0.021-0.602,0.042-0.892,0.042
		c-6.887,0-16.406-5.917-23.508-16.758l7.875-1.736c0,0,3.92,6.269,7.221,9.966C26.831,70.646,31.003,74.239,34.169,76.874z
		 M18.654,22.498c0.792,15.045,5.277,27.052,5.277,27.052s16.5-12.937,24.408-28.247c4.896-9.486,6.815-16.789,7.567-21.263H19.444
		C18.911,5.316,18.224,14.302,18.654,22.498z"/>
	<path fill-rule="evenodd" clip-rule="evenodd" fill="#FFFFFF" d="M48.742,44.929c-11.481,8.444-23.226,11.612-23.226,11.612
		l8.699,20.442c12.465-0.949,32.124-19.649,32.427-50.934C62.879,31.171,56.202,39.441,48.742,44.929z M0,25.33
		c0,14.455,4.13,26.257,9.803,34.923l5.945-5.428c0,0-2.356-4.74-5.919-15.166c-3.564-10.424-4.303-22.048-4.779-26.26
		C4.585,9.287,4.934,3.148,5.165,0.04H2.817C2.817,0.04,0,10.636,0,25.33z"/>
	<g>
		<rect x="89.225" y="83.834" fill="#FDB913" width="440.348" height="19.83"/>
		<g>
			<polygon fill="#FFFFFF" points="264.674,92.091 272.396,93.749 264.674,95.407 263.017,103.128 261.359,95.407 253.637,93.749 
				261.359,92.091 263.017,84.37 			"/>
			<polygon fill="#FFFFFF" points="368.91,92.091 376.632,93.749 368.91,95.407 367.253,103.128 365.595,95.407 357.875,93.749 
				365.595,92.091 367.253,84.37 			"/>
			<g>
				<path fill="#004F5A" d="M123.045,97.808c-1.273,0.561-2.31,0.783-3.64,0.783c-2.926,0-5.081-2.043-5.081-4.844
					c0-2.813,2.212-4.957,5.124-4.957c1.119,0,1.904,0.186,3.401,0.814v1.385c-1.12-0.615-2.282-0.936-3.431-0.936
					c-2.07,0-3.681,1.58-3.681,3.652c0,2.129,1.596,3.625,3.864,3.625c0.741,0,1.414-0.168,2.071-0.377v-1.959h-1.835v-1.232h3.206
					V97.808z"/>
				<path fill="#004F5A" d="M133.142,93.091h0.883c1.47,0,1.89-0.756,1.876-1.555c-0.014-0.896-0.547-1.441-1.876-1.441h-0.883
					V93.091z M134.179,88.919c1.931,0,3.134,1.023,3.134,2.674c0,1.105-0.573,1.932-1.593,2.338
					c0.865,0.574,1.398,1.455,2.127,2.645c0.405,0.658,0.644,0.98,1.301,1.891h-1.637l-1.261-1.961
					c-1.26-1.959-1.833-2.184-2.534-2.184h-0.574v4.145h-1.371v-9.547H134.179z"/>
				<polygon fill="#004F5A" points="152.325,90.149 148.28,90.149 148.28,93.034 152.186,93.034 152.186,94.267 148.28,94.267 
					148.28,97.233 152.45,97.233 152.45,98.466 146.909,98.466 146.909,88.919 152.325,88.919 				"/>
				<polygon fill="#004F5A" points="166.035,90.149 161.991,90.149 161.991,93.034 165.896,93.034 165.896,94.267 161.991,94.267 
					161.991,97.233 166.162,97.233 166.162,98.466 160.619,98.466 160.619,88.919 166.035,88.919 				"/>
				<polygon fill="#004F5A" points="183.161,98.466 181.985,98.466 175.603,91.116 175.603,98.466 174.315,98.466 174.315,88.919 
					175.406,88.919 181.873,96.31 181.873,88.919 183.161,88.919 				"/>
				<polygon fill="#004F5A" points="193.329,97.233 197.641,97.233 197.641,98.466 191.957,98.466 191.957,88.919 193.329,88.919 
									"/>
				<path fill="#004F5A" d="M207.626,94.421h2.968l-1.538-3.459L207.626,94.421z M213.828,98.466h-1.4l-1.273-2.813h-4.06
					l-1.205,2.813h-1.398l4.101-9.604h0.965L213.828,98.466z"/>
				<polygon fill="#004F5A" points="230.42,98.466 229.244,98.466 222.86,91.116 222.86,98.466 221.573,98.466 221.573,88.919 
					222.666,88.919 229.131,96.31 229.131,88.919 230.42,88.919 				"/>
				<polygon fill="#004F5A" points="244.646,90.149 240.6,90.149 240.6,93.034 244.506,93.034 244.506,94.267 240.6,94.267 
					240.6,97.233 244.772,97.233 244.772,98.466 239.229,98.466 239.229,88.919 244.646,88.919 				"/>
				<polygon fill="#004F5A" points="286.771,90.149 282.724,90.149 282.724,93.034 286.632,93.034 286.632,94.267 282.724,94.267 
					282.724,97.233 286.897,97.233 286.897,98.466 281.355,98.466 281.355,88.919 286.771,88.919 				"/>
				<path fill="#004F5A" d="M296.366,93.103h1.555c1.021,0,1.68-0.545,1.68-1.496c0-0.699-0.379-1.457-1.623-1.457h-1.611V93.103z
					 M297.978,88.919c2.086,0,3.035,1.23,3.035,2.744c0,1.496-1.006,2.674-3.217,2.674h-1.43v4.129h-1.371v-9.547H297.978z"/>
				<path fill="#004F5A" d="M313.451,91.019c-0.811-0.771-1.593-0.992-2.238-0.992c-0.883,0-1.514,0.459-1.514,1.133
					c0,1.832,4.13,1.805,4.13,4.844c0,1.496-1.135,2.588-2.673,2.588c-1.037,0-1.877-0.279-2.675-0.881v-1.734
					c0.7,0.895,1.583,1.385,2.521,1.385c1.063,0,1.552-0.672,1.552-1.205c0-1.973-4.127-2.197-4.127-4.814
					c0-1.553,1.147-2.549,2.896-2.549c0.729,0,1.457,0.225,2.128,0.674V91.019z"/>
				<path fill="#004F5A" d="M326.742,97.331c2.141,0,3.725-1.555,3.725-3.639c0-2.1-1.584-3.639-3.725-3.639
					c-2.127,0-3.711,1.539-3.711,3.639C323.031,95.776,324.615,97.331,326.742,97.331 M326.742,88.792c3.15,0,5.137,2.24,5.137,4.9
					c0,2.574-1.932,4.898-5.164,4.898c-3.123,0-5.096-2.309-5.096-4.898C321.619,91.046,323.648,88.792,326.742,88.792"/>
				<polygon fill="#004F5A" points="349.142,98.466 347.771,98.466 347.771,91.032 347.742,91.032 344.804,94.728 344.58,94.728 
					341.64,91.032 341.613,91.032 341.613,98.466 340.24,98.466 340.24,88.919 341.527,88.919 344.691,92.837 347.867,88.919 
					349.142,88.919 				"/>
				<polygon fill="#004F5A" points="393.49,90.149 390.187,90.149 390.187,98.466 388.814,98.466 388.814,90.149 385.511,90.149 
					385.511,88.919 393.49,88.919 				"/>
				<path fill="#004F5A" d="M402.175,94.421h2.967l-1.539-3.459L402.175,94.421z M408.376,98.466h-1.4l-1.273-2.813h-4.059
					l-1.205,2.813h-1.4l4.104-9.604h0.963L408.376,98.466z"/>
				<polygon fill="#004F5A" points="424.255,98.466 422.367,98.466 417.509,93.747 417.509,98.466 416.136,98.466 416.136,88.919 
					417.509,88.919 417.509,93.286 421.525,88.919 423.232,88.919 419.076,93.44 				"/>
				<path fill="#004F5A" d="M434.114,94.421h2.969l-1.539-3.459L434.114,94.421z M440.315,98.466h-1.398l-1.271-2.813h-4.061
					l-1.205,2.813h-1.398l4.102-9.604h0.965L440.315,98.466z"/>
				<path fill="#004F5A" d="M449.379,93.103h1.553c1.023,0,1.68-0.545,1.68-1.496c0-0.699-0.377-1.457-1.623-1.457h-1.609V93.103z
					 M450.989,88.919c2.086,0,3.037,1.23,3.037,2.744c0,1.496-1.01,2.674-3.219,2.674h-1.428v4.129h-1.373v-9.547H450.989z"/>
				<path fill="#004F5A" d="M469.948,94.714c0,2.338-1.4,3.877-4.24,3.877c-2.018,0-3.977-1.133-3.977-3.736v-5.936h1.371v5.639
					c0,1.08,0.141,1.527,0.574,1.961c0.545,0.547,1.23,0.813,2.059,0.813c1.049,0,1.805-0.336,2.236-0.77
					c0.49-0.49,0.604-1.191,0.604-2.086v-5.557h1.373V94.714z"/>
				<polygon fill="#004F5A" points="487.379,98.466 486.204,98.466 479.821,91.116 479.821,98.466 478.534,98.466 478.534,88.919 
					479.624,88.919 486.092,96.31 486.092,88.919 487.379,88.919 				"/>
				<path fill="#004F5A" d="M498.272,94.421h2.969l-1.539-3.459L498.272,94.421z M504.473,98.466h-1.398l-1.273-2.813h-4.059
					l-1.205,2.813h-1.398l4.102-9.604h0.965L504.473,98.466z"/>
			</g>
		</g>
	</g>
</g>
</svg>
